<?xml version="1.0" encoding="UTF-8" standalone="no"?>
<!-- Created with Inkscape (http://www.inkscape.org/) -->

<svg
   xmlns:dc="http://purl.org/dc/elements/1.1/"
   xmlns:cc="http://creativecommons.org/ns#"
   xmlns:rdf="http://www.w3.org/1999/02/22-rdf-syntax-ns#"
   xmlns:svg="http://www.w3.org/2000/svg"
   xmlns="http://www.w3.org/2000/svg"
   xmlns:sodipodi="http://sodipodi.sourceforge.net/DTD/sodipodi-0.dtd"
   xmlns:inkscape="http://www.inkscape.org/namespaces/inkscape"
   width="800"
   height="800"
   viewBox="0 0 800.00003 800.00003"
   id="svg2"
   version="1.1"
   inkscape:version="0.91 r13725"
   enable-background="new"
   sodipodi:docname="f5-wp-install.svg">
  <defs
     id="defs4">
    <marker
       inkscape:stockid="Arrow1Mend"
       orient="auto"
       refY="0.0"
       refX="0.0"
       id="Arrow1Mend"
       style="overflow:visible;"
       inkscape:isstock="true">
      <path
         id="path4429"
         d="M 0.0,0.0 L 5.0,-5.0 L -12.5,0.0 L 5.0,5.0 L 0.0,0.0 z "
         style="fill-rule:evenodd;stroke:#000000;stroke-width:1pt;stroke-opacity:1;fill:#000000;fill-opacity:1"
         transform="scale(0.4) rotate(180) translate(10,0)" />
    </marker>
    <marker
       inkscape:stockid="Arrow1Lend"
       orient="auto"
       refY="0.0"
       refX="0.0"
       id="Arrow1Lend"
       style="overflow:visible;"
       inkscape:isstock="true">
      <path
         id="path4423"
         d="M 0.0,0.0 L 5.0,-5.0 L -12.5,0.0 L 5.0,5.0 L 0.0,0.0 z "
         style="fill-rule:evenodd;stroke:#000000;stroke-width:1pt;stroke-opacity:1;fill:#000000;fill-opacity:1"
         transform="scale(0.8) rotate(180) translate(12.5,0)" />
    </marker>
  </defs>
  <sodipodi:namedview
     id="base"
     pagecolor="#ffffff"
     bordercolor="#666666"
     borderopacity="1.0"
     inkscape:pageopacity="0.0"
     inkscape:pageshadow="2"
     inkscape:zoom="0.175"
     inkscape:cx="236.00198"
     inkscape:cy="58.91492"
     inkscape:document-units="px"
     inkscape:current-layer="layer1"
     showgrid="false"
     units="px"
     inkscape:window-width="1301"
     inkscape:window-height="744"
     inkscape:window-x="1345"
     inkscape:window-y="24"
     inkscape:window-maximized="1" />
  <metadata
     id="metadata7">
    <rdf:RDF>
      <cc:Work
         rdf:about="">
        <dc:format>image/svg+xml</dc:format>
        <dc:type
           rdf:resource="http://purl.org/dc/dcmitype/StillImage" />
        <dc:title />
      </cc:Work>
    </rdf:RDF>
  </metadata>
  <g
     inkscape:label="Layer 1"
     inkscape:groupmode="layer"
     id="layer1"
     transform="translate(0,-252.36208)"
     style="">
    <rect
       style="opacity:1;fill:#03659c;fill-opacity:1;stroke:none;stroke-width:3.29999995;stroke-linecap:round;stroke-linejoin:round;stroke-miterlimit:4;stroke-dasharray:3.29999995, 6.5999999;stroke-dashoffset:0;stroke-opacity:1"
       id="rect4288"
       width="205.33282"
       height="311.49393"
       x="518.65851"
       y="642.65601"
       rx="0.6781652"
       ry="1.6895661" />
    <g
       id="g4332"
       style="fill:#808080"
       transform="translate(105.05587,151.52291)">
      <path
         style="fill:#000000"
         d="m 223.10112,474.32785 c -6.79629,-2.43336 -11.98505,-6.10514 -18.43965,-13.04863 -2.89091,-3.10988 -17.47322,-18.25433 -32.40513,-33.65433 -14.9319,-15.4 -28.8709,-29.94098 -30.97554,-32.3133 l -3.82661,-4.31329 4.67354,-4.67355 4.67355,-4.67354 4.34951,4.48684 c 2.39223,2.46776 18.83091,19.64082 36.53039,38.16234 34.49796,36.1002 37.04169,38.2093 46.08308,38.20893 6.30701,-2.5e-4 15.26839,-4.98885 23.27604,-12.95725 8.87613,-8.83262 12.12601,-15.01191 11.54976,-21.96064 -0.28251,-3.40674 -1.31918,-6.64485 -2.86571,-8.95127 -1.86533,-2.78188 -61.80518,-57.70543 -78.05228,-71.52018 l -2.94595,-2.50491 4.4426,-4.36008 c 2.44343,-2.39805 4.88553,-4.19584 5.42689,-3.99509 2.92985,1.08644 78.50016,69.59414 81.10235,73.52272 2.81525,4.25026 4.04423,7.14462 7.0201,16.53311 2.43699,7.68837 -5.5631,23.57175 -17.49396,34.73247 -13.1681,12.31812 -29.99357,17.6225 -42.12298,13.27965 z M 71.570726,472.26704 c 0.24799,-1.45318 2.47572,-10.2443 4.95052,-19.53581 5.13589,-19.28248 5.42449,-25.78599 1.39536,-31.44438 -4.92924,-6.92248 -15.66469,-9.2293 -23.21162,-4.98769 -6.11206,3.43517 -8.48494,8.19347 -13.93783,27.94933 -2.74997,9.96317 -5.35549,18.75016 -5.79003,19.52666 -1.14547,2.04683 -7.95778,-3.13558 -13.64231,-10.37825 -6.99247,-8.90913 -9.728255,-16.70534 -10.298847,-29.34879 -0.729864,-16.17268 3.380747,-27.81577 13.207605,-37.40985 8.235422,-8.04035 25.594222,-15.90341 39.801202,-18.02885 5.12852,-0.76726 5.00782,-0.65542 78.405194,-72.64763 l 20.14869,-19.76295 -2.43507,-6.02864 c -3.57158,-8.84233 -4.99936,-20.22447 -3.63924,-29.01162 2.43782,-15.74964 13.40491,-31.0311 27.3064,-38.04856 6.74098,-3.40283 16.30356,-6.98512 18.64613,-6.98512 1.62204,0 1.66222,-0.2065 -4.2708,21.94783 -2.42264,9.0463 -4.4048,18.63115 -4.4048,21.29966 0,7.64993 3.76794,13.0863 11.23153,16.20478 4.96754,2.07558 9.06117,1.94921 13.71158,-0.42325 7.07194,-3.60783 9.48584,-7.80121 14.05053,-24.40829 5.65417,-20.5708 7.24785,-25.62073 8.08553,-25.62073 0.39267,0 3.81207,3.09814 7.59869,6.88476 10.88685,10.88685 15.29956,21.73774 15.29689,37.61524 -10e-4,7.3067 -0.5368,10.53776 -2.84663,17.17326 -6.33637,18.20268 -18.74302,28.64451 -40.3795,33.98469 -5.6181,1.38663 -11.12236,2.99326 -12.23168,3.57029 -1.10932,0.57704 -9.44194,8.30742 -18.51694,17.17863 -75.88425,74.18017 -76.24707,74.54916 -75.57386,76.85985 4.97455,17.07442 5.71818,25.91973 3.04267,36.19173 -4.85008,18.6207 -19.406334,32.91474 -39.066644,38.36289 l -7.08359,1.96296 0.45087,-2.64215 z m 26.50337,-29.94011 c 3.920314,-4.88586 6.727184,-12.28089 6.727184,-17.72358 0,-4.55395 -3.52768,-17.6759 -6.581124,-24.47987 l -2.62276,-5.84428 22.851944,-22.38385 c 86.23553,-84.4691 84.40849,-82.77046 89.02691,-82.77046 16.13249,0 31.83745,-9.17028 38.34571,-22.39044 4.82588,-9.80277 5.71328,-21.67789 2.11922,-28.35956 -0.66565,-1.2375 -1.3756,-2.25 -1.57768,-2.25 -0.20208,0 -1.34763,3.2625 -2.54567,7.25 -2.74666,9.14187 -5.78387,14.40363 -11.07165,19.18081 -9.81952,8.87135 -24.37306,10.47599 -36.90469,4.06902 -12.16248,-6.21824 -18.17987,-20.51578 -15.27336,-36.2901 1.19805,-6.5021 0.13282,-6.45452 -4.45226,0.19886 -3.80783,5.52553 -6.31459,13.13466 -6.31459,19.16758 0,6.12705 3.49469,16.47515 7.6318,22.59845 l 3.59801,5.32538 -24.47564,24 c -13.4616,13.2 -37.37705,36.55687 -53.14544,51.90415 l -28.669804,27.90415 -10.4444,1.35051 c -13.6173,1.76078 -20.19545,4.30121 -26.82382,10.35916 -7.39095,6.75492 -11.820324,15.34081 -12.449314,24.13177 -0.460301,6.43331 1.050064,15.28197 2.792254,16.3587 0.40662,0.2513 1.96156,-3.02279 3.45542,-7.27576 3.87049,-11.01915 7.69428,-16.5552 14.28016,-20.67469 17.03929,-10.65815 38.88315,-4.52409 46.99623,13.19719 2.24099,4.89498 2.43419,6.32769 1.96695,14.58648 -0.28498,5.03709 -0.83933,10.17084 -1.2319,11.40834 -1.12009,3.53082 0.68481,2.5712 4.79231,-2.54796 z M 73.301276,304.44102 c -33.83658,-33.21154 -30.32077,-30.23593 -36.71733,-31.07569 l -5.64,-0.74044 L 11.774049,251.23399 -7.3958479,229.8431 9.9198327,212.50618 C 25.046352,197.36112 27.452026,195.3245 28.948036,196.39708 c 0.94189,0.6753 11.16481,9.0144 22.71761,18.53135 l 21.0051,17.30355 0.68412,5.47553 0.68412,5.47553 25.51711,24.91941 25.517114,24.9194 -4.5592,4.75749 -4.5592,4.75748 -27.826764,-27.06677 c -22.34357,-21.73332 -27.88081,-27.63607 -28.10098,-29.95596 -0.15081,-1.58906 -0.48159,-3.84074 -0.73505,-5.00374 -0.37065,-1.70065 -28.58748,-26.1553 -31.31645,-27.14099 -0.3891,-0.14054 -4.487743,3.54451 -9.108097,8.18899 l -8.400645,8.44451 13.504956,14.81101 13.504956,14.81102 5.67635,0.91398 5.67636,0.91399 25.73592,26.94856 c 14.15475,14.82171 25.735914,27.27288 25.735914,27.66927 0,0.708 -6.170484,8.07971 -6.719454,8.02754 -0.1543,-0.0147 -9.28055,-8.86041 -20.28055,-19.65721 z"
         id="path4366"
         inkscape:connector-curvature="0" />
      <path
         style="fill:none;fill-rule:evenodd;stroke:#000000;stroke-width:13.19999981;stroke-linecap:butt;stroke-linejoin:miter;stroke-miterlimit:4;stroke-dasharray:52.79999924, 13.19999981;stroke-dashoffset:0;stroke-opacity:1;marker-end:url(#Arrow1Mend)"
         d="M 128.60482,536.10231 C 169.52894,643.82976 285.99695,663.82719 345.2082,672.24012"
         id="path4414"
         inkscape:connector-curvature="0"
         sodipodi:nodetypes="cc" />
    </g>
    <path
       style="fill:#e3dbdb"
       d="m 616.51006,894.20076 c -25.52149,-1.11612 -48.89463,-12.99542 -64.98862,-33.03019 -13.07063,-16.27112 -19.90496,-37.05693 -19.08517,-58.04527 0.63399,-16.23166 5.55334,-31.5671 14.41373,-44.93289 19.27122,-29.07043 53.30395,-43.99322 87.53984,-38.38476 36.12225,5.91747 64.85934,33.75993 71.97298,69.7323 1.72299,8.71283 2.08573,18.36711 1.02649,27.31924 -4.144,35.02299 -29.32243,64.51047 -63.26705,74.09465 -8.90553,2.51447 -18.51704,3.64468 -27.6122,3.24692 z m 11.20601,-4.16814 c 6.49073,-0.62266 12.29599,-1.80436 18.164,-3.6974 20.49253,-6.61095 37.79071,-21.00731 48.11914,-40.047 11.71885,-21.60284 13.30287,-47.59426 4.29262,-70.4352 -4.31209,-10.93108 -10.3832,-20.16957 -18.78599,-28.58683 -6.25513,-6.26591 -12.16091,-10.67624 -19.85629,-14.82833 -9.75815,-5.26507 -20.23121,-8.39593 -32.00672,-9.56822 -3.56887,-0.35529 -11.37367,-0.35522 -14.94135,1.3e-4 -13.4076,1.33545 -25.18738,5.23387 -36.25475,11.99822 -8.75133,5.3488 -17.19349,13.02914 -23.38378,21.27365 -15.34461,20.43667 -20.52508,46.67038 -14.10177,71.41087 2.52197,9.71381 6.89653,19.12081 12.66714,27.23933 15.09766,21.24047 38.65816,34.19394 64.58878,35.51064 2.22126,0.1128 9.22301,-0.0515 11.49897,-0.26986 z m -13.33002,-8.44075 c -4.13193,-0.349 -8.68008,-1.10225 -12.45113,-2.0621 -1.28906,-0.32811 -2.49588,-0.63003 -2.68182,-0.67093 -0.23968,-0.0527 -0.31119,-0.14355 -0.24566,-0.31202 0.0508,-0.1307 5.1042,-14.80546 11.22971,-32.61057 6.1255,-17.80513 11.17987,-32.41737 11.23194,-32.47166 0.0521,-0.0543 5.13375,13.72252 11.29263,30.61514 6.15887,16.8926 11.44542,31.33791 11.74786,32.1007 0.30244,0.76277 0.53678,1.39855 0.52073,1.41284 -0.016,0.0144 -0.88024,0.2973 -1.92048,0.6289 -4.86641,1.55128 -9.59536,2.54372 -15.17403,3.18451 -2.35787,0.27084 -11.11825,0.39055 -13.54975,0.18519 z m -29.34143,-8.48967 c -6.52744,-3.42167 -12.71995,-7.99752 -18.12591,-13.39383 -10.23056,-10.21231 -17.34518,-23.22582 -20.35877,-37.23864 -1.10919,-5.1576 -1.53213,-8.90016 -1.63809,-14.49506 -0.16485,-8.70537 0.85459,-15.9457 3.4,-24.14758 0.78974,-2.54472 2.8701,-7.88975 3.00763,-7.72742 0.14968,0.17667 35.77407,97.90034 35.71158,97.96282 -0.0312,0.0311 -0.92952,-0.40101 -1.99644,-0.96029 z m 73.25068,-1.93411 c 0.0378,-0.10071 5.09423,-14.71797 11.23653,-32.48279 6.14232,-17.76484 11.71704,-33.78536 12.38829,-35.60118 2.70098,-7.30641 4.16127,-13.41395 4.76189,-19.91621 0.28517,-3.08707 0.14256,-10.69983 -0.23185,-12.37788 -0.036,-0.16114 0.55755,0.95488 1.31888,2.48003 3.39156,6.79415 5.73395,14.24781 6.89711,21.94708 0.94704,6.26881 1.05165,14.08415 0.2738,20.4556 -2.42823,19.88974 -12.79395,38.05239 -28.7762,50.42123 -2.60087,2.01284 -7.43419,5.25723 -7.83194,5.25723 -0.0579,0 -0.0743,-0.0824 -0.0365,-0.18311 z m -56.95155,-18.91388 c -0.1608,-0.39048 -27.27743,-81.01993 -27.25737,-81.04793 0.009,-0.0128 1.03833,-0.098 2.28711,-0.18953 4.18942,-0.30693 6.64162,-0.60128 7.2496,-0.87022 0.71352,-0.31563 1.44562,-1.11862 1.68719,-1.85058 0.26341,-0.79815 0.11888,-1.96264 -0.34097,-2.74731 -0.29961,-0.51125 -0.58591,-0.76419 -1.2114,-1.07021 l -0.81907,-0.40073 -2.66012,0.17785 c -1.46307,0.0978 -4.14327,0.27634 -5.95601,0.39672 -1.81273,0.12038 -6.39105,0.25781 -10.17405,0.3054 l -6.87816,0.0865 0.26983,-0.42298 c 0.7252,-1.1368 2.50345,-3.54991 3.90637,-5.30102 4.87974,-6.09084 10.80321,-11.48325 17.34377,-15.78882 10.32014,-6.79363 21.57733,-10.75875 34.35047,-12.09927 2.45291,-0.25743 11.6045,-0.25827 14.06244,-0.001 16.1702,1.69062 30.17955,7.6866 42.31577,18.11112 l 1.37352,1.1798 -1.59325,0.0939 c -7.88244,0.46463 -13.29689,8.30509 -11.54771,16.72183 0.68475,3.29488 2.06572,6.23888 5.68285,12.11481 4.71769,7.66374 6.76892,13.0866 7.41679,19.60774 0.56178,5.65461 -0.28221,10.5865 -3.7261,21.77395 -0.76884,2.49755 -3.16089,10.42364 -5.3157,17.61354 -2.15478,7.18989 -3.95412,13.07305 -3.99852,13.07368 -0.10172,10e-4 -27.14419,-80.41515 -27.06771,-80.49165 0.031,-0.031 1.04341,-0.12775 2.24988,-0.21509 3.33433,-0.24137 6.4379,-0.57986 6.98039,-0.76132 0.7716,-0.2581 1.38257,-0.79272 1.73286,-1.51632 0.26386,-0.54506 0.31349,-0.85788 0.26692,-1.68223 -0.0715,-1.26487 -0.57616,-2.07234 -1.63624,-2.61788 l -0.7063,-0.36347 -2.73473,0.17922 c -1.5041,0.0986 -4.25085,0.27871 -6.10387,0.40029 -4.69497,0.30805 -15.30173,0.42854 -19.55559,0.22214 -1.8933,-0.0919 -5.61054,-0.3058 -8.26052,-0.47541 -5.39094,-0.34504 -5.56099,-0.33076 -6.53472,0.54895 -1.11843,1.01044 -1.34337,2.97936 -0.48235,4.22228 0.70276,1.01446 1.27261,1.18948 5.02373,1.54298 1.81273,0.17083 3.72223,0.35677 4.24332,0.41319 l 0.94744,0.10259 5.85284,16.03606 5.85283,16.03605 -8.21136,24.61321 c -5.73443,17.18877 -8.24536,24.53062 -8.3241,24.33942 z"
       id="path4330"
       inkscape:connector-curvature="0" />
  </g>
</svg>
